<?xml version="1.0" encoding="UTF-8"?><!-- Generator: visioncortex VTracer 0.6.3 --><svg xmlns="http://www.w3.org/2000/svg" version="1.1" width="1280" height="1280">
<path d="M0 0 C2.08 1.62 4.09 3.29 6.09 5 C7.08 5.66 8.07 6.32 9.09 7 C9.18 6.43 9.27 5.86 9.36 5.27 C10.52 -1.15 12.41 -6.39 17.91 -10.29 C19.59 -11.27 21.34 -12.14 23.09 -13 C23.75 -13.33 24.41 -13.66 25.09 -14 C32.14 -14.76 37.67 -14.65 43.48 -10.36 C49.29 -5.47 51.03 -1.51 52.09 6 C52.18 8.13 52.22 10.26 52.22 12.39 C52.22 13.66 52.23 14.93 52.23 16.23 C52.23 17.62 52.23 19.02 52.22 20.41 C52.22 21.88 52.23 23.36 52.23 24.84 C52.23 28.84 52.23 32.84 52.23 36.84 C52.23 41.04 52.23 45.24 52.23 49.44 C52.23 56.5 52.23 63.56 52.22 70.62 C52.22 78.75 52.22 86.89 52.23 95.02 C52.23 102.02 52.23 109.03 52.23 116.03 C52.23 120.2 52.23 124.38 52.23 128.55 C52.23 132.48 52.23 136.42 52.23 140.35 C52.22 141.78 52.22 143.21 52.23 144.65 C52.26 166.94 49.76 184.43 39.09 204 C38.76 204.66 38.43 205.32 38.09 206 C37.43 206 36.77 206 36.09 206 C35.85 206.57 35.6 207.15 35.34 207.75 C33.91 210.33 32.31 212.06 30.09 214 C29.43 214 28.77 214 28.09 214 C27.76 214.99 27.43 215.98 27.09 217 C25.57 218.38 25.57 218.38 23.72 219.68 C23.11 220.12 22.51 220.56 21.88 221.01 C20.09 222 20.09 222 17.09 222 C17.09 222.66 17.09 223.32 17.09 224 C4.43 230.05 -7.13 233.63 -20.91 236 C-21.86 236.19 -22.82 236.38 -23.8 236.57 C-36.35 238.29 -49.5 237.17 -61.91 235 C-63.14 234.79 -64.37 234.58 -65.64 234.37 C-79.21 231.9 -95.01 228.54 -104.91 218.18 C-107.84 213.5 -109.5 209.15 -108.46 203.59 C-106.3 196.73 -103.27 190.81 -96.91 187 C-90.98 184.71 -86.87 185.02 -80.91 187 C-79.7 187.39 -79.7 187.39 -78.47 187.79 C-75.76 188.68 -73.05 189.59 -70.34 190.5 C-69.42 190.8 -68.5 191.11 -67.56 191.43 C-66.21 191.88 -66.21 191.88 -64.84 192.34 C-63.55 192.77 -63.55 192.77 -62.22 193.21 C-60.4 193.83 -58.59 194.48 -56.78 195.14 C-41.16 199.81 -22.15 199.07 -7.66 191.43 C-5.05 190.07 -2.7 188.93 0.09 188 C0.09 187.34 0.09 186.68 0.09 186 C0.75 186 1.41 186 2.09 186 C2.36 185.46 2.63 184.92 2.91 184.37 C3.78 182.63 4.68 180.9 5.59 179.18 C8.91 172.14 9.36 166.24 9.22 158.56 C9.21 157.64 9.2 156.71 9.19 155.76 C9.17 153.51 9.14 151.25 9.09 149 C7.95 150.14 7.95 150.14 6.79 151.31 C-6.13 164.16 -22.67 173.14 -41.18 173.33 C-42.16 173.32 -43.14 173.31 -44.16 173.31 C-45.18 173.3 -46.2 173.3 -47.25 173.3 C-54.52 173.19 -61.03 172.45 -67.91 170 C-68.83 169.71 -69.76 169.42 -70.71 169.12 C-87.82 163.45 -102.9 150.88 -112.91 136 C-113.76 134.74 -113.76 134.74 -114.62 133.46 C-123.18 119.86 -127.92 103.39 -128.59 87.37 C-128.63 86.5 -128.67 85.63 -128.71 84.73 C-129.19 71.49 -127.79 59.66 -123.91 47 C-123.67 46.16 -123.43 45.33 -123.19 44.48 C-116.96 23.9 -102.5 5.75 -83.92 -4.94 C-56.76 -19.26 -25.21 -17.38 0 0 Z M-53.91 26 C-55.11 26.36 -55.11 26.36 -56.33 26.74 C-70.36 31.66 -77.79 41.96 -84.29 54.7 C-90.69 69.35 -90.75 87.22 -85.16 102.12 C-82.11 109.17 -78.17 116.36 -72.91 122 C-72.25 122 -71.59 122 -70.91 122 C-70.91 122.66 -70.91 123.32 -70.91 124 C-65.82 128.22 -60.19 131.08 -53.91 133 C-52.14 133.58 -52.14 133.58 -50.34 134.18 C-37.23 137.22 -23.8 135.04 -12.22 128.5 C-0.05 120.54 6.82 108.83 10.47 95.02 C11.5 90.02 11.54 85.14 11.47 80.06 C11.46 79 11.45 77.95 11.44 76.86 C11.12 60.98 6.47 48.85 -4.55 37.22 C-15.17 27.19 -27.32 23.7 -41.66 23.84 C-45.97 24.05 -49.8 24.71 -53.91 26 Z " fill="#ffffff" transform="translate(744.90625,519.00390625)"/>
<path d="M0 0 C1.06 -0.02 2.11 -0.03 3.2 -0.05 C21.66 -0.06 39.61 7.59 53.75 19.31 C53.9 18.42 53.9 18.42 54.05 17.52 C55 12.47 55.9 8.95 59.75 5.31 C66.84 0.63 72.28 -0.62 80.75 0.31 C86.4 2.45 90.4 6.39 93.75 11.31 C96.46 18.15 96.04 25.2 96.02 32.46 C96.03 33.89 96.03 35.33 96.04 36.76 C96.05 40.64 96.05 44.53 96.05 48.41 C96.05 51.66 96.06 54.91 96.06 58.15 C96.07 65.82 96.07 73.49 96.07 81.15 C96.06 89.04 96.07 96.94 96.09 104.83 C96.11 111.62 96.12 118.41 96.11 125.2 C96.11 129.25 96.11 133.3 96.13 137.35 C96.14 141.16 96.14 144.97 96.13 148.78 C96.12 150.17 96.13 151.57 96.13 152.96 C96.18 161.91 96.03 170.31 90.44 177.69 C85.48 182.53 81.11 183.74 74.25 183.75 C72.98 183.77 71.71 183.79 70.41 183.81 C65.31 183.12 62.38 181 58.85 177.35 C58.36 176.7 57.88 176.05 57.38 175.38 C56.87 174.73 56.37 174.08 55.85 173.41 C54.53 170.88 54.54 169.13 54.75 166.31 C51.47 168.11 48.68 170.18 45.81 172.56 C29.29 185.48 10.24 188.93 -10.25 187.31 C-14.43 186.68 -18.27 185.72 -22.25 184.31 C-23.26 184.01 -23.26 184.01 -24.29 183.69 C-30.98 181.48 -37.11 177.73 -43.25 174.31 C-43.25 173.65 -43.25 172.99 -43.25 172.31 C-43.94 172.11 -44.64 171.9 -45.36 171.69 C-49.18 169.87 -51.64 167.32 -54.56 164.31 C-55.11 163.77 -55.66 163.22 -56.23 162.66 C-60.25 158.58 -60.25 158.58 -60.25 156.31 C-60.91 156.31 -61.57 156.31 -62.25 156.31 C-63.78 154.15 -65.16 152.02 -66.5 149.75 C-66.9 149.08 -67.3 148.4 -67.71 147.71 C-82.75 121.7 -85.13 90.79 -77.64 61.96 C-75.94 55.88 -73.6 50.43 -70.62 44.88 C-70.19 44.05 -69.75 43.23 -69.31 42.39 C-65.65 35.68 -61.5 29.89 -56.25 24.31 C-55.44 23.43 -55.44 23.43 -54.62 22.53 C-53.25 21.31 -53.25 21.31 -51.25 21.31 C-51.25 20.65 -51.25 19.99 -51.25 19.31 C-42.11 11.32 -31.94 5.61 -20.25 2.31 C-19.09 1.96 -17.93 1.61 -16.74 1.25 C-11.21 -0.11 -5.67 -0.02 0 0 Z M-7.25 40.31 C-8.05 40.55 -8.85 40.78 -9.68 41.02 C-17.2 43.58 -24.57 48.54 -28.53 55.59 C-28.77 56.16 -29.01 56.73 -29.25 57.31 C-29.91 57.31 -30.57 57.31 -31.25 57.31 C-32.21 59.04 -33.17 60.77 -34.12 62.5 C-34.66 63.46 -35.19 64.43 -35.74 65.42 C-43.15 79.64 -43.2 98.97 -39.25 114.31 C-37.02 120.97 -33.32 126.64 -29.25 132.31 C-28.74 133.06 -28.22 133.81 -27.69 134.57 C-27.22 135.15 -26.74 135.72 -26.25 136.31 C-25.59 136.31 -24.93 136.31 -24.25 136.31 C-23.92 137.3 -23.59 138.29 -23.25 139.31 C-12.37 148.29 -0.02 150.43 13.75 149.31 C22.01 148.12 28.22 145.49 34.75 140.31 C35.41 139.79 36.07 139.27 36.75 138.73 C39.82 136.21 42.67 133.74 44.75 130.31 C44.75 129.65 44.75 128.99 44.75 128.31 C45.41 128.31 46.07 128.31 46.75 128.31 C47.71 126.29 48.67 124.27 49.62 122.25 C50.16 121.12 50.69 120 51.24 118.84 C57.82 103.46 57.21 84.58 51.39 69.06 C46.35 56.86 37.33 47.56 25.75 41.31 C14.73 37.76 3.87 36.96 -7.25 40.31 Z " fill="#ffffff" transform="translate(908.25,504.6875)"/>
<path d="M0 0 C0.66 0.33 1.32 0.66 2 1 C2 1.66 2 2.32 2 3 C2.66 3 3.32 3 4 3 C9.8 13.98 14.79 25.27 19.61 36.71 C22.5 43.55 25.51 50.32 28.65 57.05 C30.4 60.87 32 64.73 33.56 68.62 C35.8 74.13 38.11 79.58 40.61 84.98 C42.84 89.84 44.99 94.74 47.15 99.63 C48.99 103.81 50.92 107.93 53 112 C57.9 101.92 57.9 101.92 62 91.5 C63.74 86.49 65.94 81.75 68.22 76.97 C70.5 72.17 72.57 67.3 74.56 62.38 C77.03 56.28 79.68 50.32 82.47 44.37 C84.23 40.49 85.84 36.57 87.44 32.62 C90.03 26.23 92.8 19.96 95.78 13.73 C97 11.17 98.1 8.7 99 6 C99.66 6 100.32 6 101 6 C101.37 5.13 101.37 5.13 101.75 4.25 C103.78 0.6 105.93 -1.48 109.69 -3.31 C116.45 -4.72 123.04 -3.49 129 0 C133.29 4.11 135.96 8.47 136.23 14.47 C135.4 23.72 131.21 31.89 126.99 40 C124.59 44.71 122.55 49.57 120.5 54.44 C116.86 63.06 113.01 71.55 109 80 C105.05 88.4 101.29 96.87 97.56 105.38 C93.5 114.65 89.33 123.85 85 133 C84.04 135.06 83.08 137.12 82.12 139.19 C81.64 140.23 81.16 141.26 80.66 142.33 C79.34 145.21 78.09 148.11 76.84 151.01 C76.26 152.34 76.26 152.34 75.67 153.69 C74.91 155.44 74.16 157.18 73.42 158.93 C70.3 166.07 66.32 172.62 59 176 C53.33 177.69 47.88 177.61 42.31 175.81 C32.84 170.63 29.18 161.54 25.19 152.06 C24.3 149.99 23.41 147.91 22.52 145.84 C22.09 144.83 21.66 143.83 21.21 142.79 C19.15 138.04 16.93 133.36 14.71 128.67 C12.38 123.71 10.19 118.69 7.98 113.68 C5.92 109.03 3.8 104.41 1.62 99.81 C-1.39 93.43 -4.2 86.98 -7 80.5 C-9.72 74.21 -12.45 67.94 -15.38 61.75 C-18.47 55.18 -21.47 48.57 -24.44 41.94 C-25.23 40.17 -26.03 38.4 -26.83 36.63 C-35.82 16.46 -35.82 16.46 -33 8 C-24.5 -4.75 -13.13 -6.91 0 0 Z " fill="#ffffff" transform="translate(462,512)"/>
<path d="M0 0 C1.64 0.81 1.64 0.81 3.83 2.31 C3.83 2.97 3.83 3.63 3.83 4.31 C4.82 4.64 5.81 4.97 6.83 5.31 C6.83 5.97 6.83 6.63 6.83 7.31 C7.49 7.31 8.15 7.31 8.83 7.31 C12.66 14.07 12.18 20.64 12.02 28.25 C12 30.13 12 30.13 11.98 32.06 C11.94 35.14 11.89 38.23 11.83 41.31 C12.67 41.29 13.52 41.27 14.38 41.25 C17.53 41.18 20.69 41.13 23.84 41.09 C25.2 41.07 26.56 41.05 27.91 41.01 C41.93 40.66 41.93 40.66 47.83 45.31 C52.37 49.85 54.77 54.02 54.86 60.55 C54.46 66.54 52.8 70.6 48.26 74.75 C40.97 80.5 32.28 79.44 23.39 79.38 C22.28 79.37 21.17 79.37 20.02 79.36 C17.29 79.35 14.56 79.33 11.83 79.31 C11.87 91.61 11.93 103.91 12.02 116.21 C12.06 121.92 12.09 127.64 12.1 133.35 C12.12 138.86 12.15 144.37 12.2 149.88 C12.22 151.98 12.22 154.09 12.22 156.19 C12.23 159.14 12.25 162.08 12.29 165.02 C12.28 165.89 12.28 166.76 12.27 167.66 C12.34 171.74 12.51 173.81 14.74 177.33 C18.77 181.15 22.45 180.51 27.79 180.48 C30.34 180.34 32.3 180.05 34.71 179.25 C38.4 178.14 40.17 178.09 43.83 179.31 C48.1 182.15 51.75 185.14 52.83 190.31 C53.44 196.31 52.97 201.01 49.83 206.31 C44.05 213.02 36.56 216.62 27.79 217.68 C24.65 217.81 21.54 217.81 18.39 217.75 C16.83 217.76 16.83 217.76 15.24 217.77 C2.77 217.67 -9.8 214.94 -19.3 206.39 C-29.6 195.25 -30.34 180.68 -30.28 166.27 C-30.28 165.33 -30.28 164.38 -30.28 163.4 C-30.28 160.31 -30.27 157.21 -30.27 154.12 C-30.26 151.96 -30.26 149.8 -30.26 147.64 C-30.26 141.98 -30.25 136.32 -30.24 130.66 C-30.23 124.88 -30.22 119.09 -30.22 113.3 C-30.21 101.97 -30.19 90.64 -30.17 79.31 C-31.27 79.32 -32.37 79.33 -33.51 79.34 C-34.96 79.34 -36.42 79.35 -37.88 79.36 C-38.6 79.36 -39.33 79.37 -40.07 79.37 C-47.26 79.4 -53.3 79.08 -58.85 73.92 C-62.35 69.66 -64.36 64.64 -64.61 59.12 C-63.85 52.52 -61.16 48.61 -56.17 44.31 C-50.74 40.8 -46.03 40.95 -39.79 41.12 C-38.87 41.14 -37.94 41.15 -36.98 41.17 C-34.71 41.2 -32.44 41.25 -30.17 41.31 C-30.17 40.68 -30.18 40.05 -30.18 39.4 C-30.2 36.52 -30.22 33.63 -30.23 30.75 C-30.24 29.76 -30.25 28.77 -30.26 27.75 C-30.29 18.12 -30.01 11.48 -23.17 4.31 C-16.84 -1.64 -8.23 -2.61 0 0 Z " fill="#ffffff" transform="translate(350.16796875,470.6875)"/>
<path d="M0 0 C1.65 0.33 3.3 0.66 5 1 C5 7.93 5 14.86 5 22 C14.24 22 23.48 22 33 22 C32.96 15.51 32.96 15.51 32.91 9.02 C32.91 8.21 32.9 7.4 32.9 6.57 C32.9 5.74 32.89 4.92 32.89 4.06 C33 2 33 2 34 0 C36.48 0.5 36.48 0.5 39 1 C39.03 7.94 39.04 14.88 39.05 21.83 C39.06 24.19 39.07 26.55 39.08 28.91 C39.09 32.3 39.09 35.7 39.1 39.09 C39.1 40.15 39.11 41.21 39.11 42.3 C39.11 43.28 39.11 44.26 39.11 45.27 C39.12 46.14 39.12 47.01 39.12 47.9 C39 50 39 50 38 52 C34.12 51.12 34.12 51.12 33 50 C32.91 48.37 32.89 46.73 32.9 45.09 C32.9 44.2 32.91 43.31 32.91 42.39 C32.92 41.25 32.93 40.11 32.94 38.94 C32.96 35.33 32.98 31.72 33 28 C23.76 28 14.52 28 5 28 C5 35.26 5 42.52 5 50 C3.68 50.66 2.36 51.32 1 52 C-1 50 -1 50 -1.25 47.91 C-1.25 47.04 -1.24 46.18 -1.24 45.29 C-1.25 44.31 -1.25 43.34 -1.25 42.33 C-1.25 41.27 -1.24 40.21 -1.23 39.12 C-1.23 38.04 -1.23 36.96 -1.23 35.84 C-1.23 33.55 -1.22 31.26 -1.21 28.97 C-1.19 25.45 -1.19 21.93 -1.19 18.41 C-1.18 16.19 -1.17 13.97 -1.17 11.75 C-1.17 10.69 -1.17 9.63 -1.16 8.53 C-1.16 7.07 -1.16 7.07 -1.15 5.58 C-1.14 4.72 -1.14 3.86 -1.13 2.97 C-1 1 -1 1 0 0 Z " fill="#ffffff" transform="translate(690,758)"/>
<path d="M0 0 C10.23 0 20.46 0 31 0 C30.67 1.65 30.34 3.3 30 5 C22.08 5.33 14.16 5.66 6 6 C5.67 11.28 5.34 16.56 5 22 C6.49 21.99 7.99 21.98 9.52 21.96 C11.47 21.96 13.42 21.95 15.38 21.94 C16.36 21.93 17.34 21.92 18.36 21.91 C19.77 21.91 19.77 21.91 21.21 21.9 C22.51 21.89 22.51 21.89 23.85 21.89 C26 22 26 22 28 23 C27.12 26.88 27.12 26.88 26 28 C24.44 28.09 22.87 28.11 21.31 28.1 C20.36 28.09 19.42 28.09 18.45 28.09 C17.45 28.08 16.46 28.07 15.44 28.06 C14.44 28.06 13.44 28.05 12.42 28.05 C9.94 28.04 7.47 28.02 5 28 C5 33.94 5 39.88 5 46 C13.25 46 21.5 46 30 46 C30.33 47.65 30.66 49.3 31 51 C28.66 53.34 22.81 52.17 19.7 52.19 C19.02 52.19 18.34 52.19 17.64 52.19 C15.57 52.19 13.51 52.21 11.44 52.22 C10.14 52.23 8.84 52.23 7.5 52.23 C6.31 52.23 5.11 52.24 3.87 52.24 C1 52 1 52 -1 50 C-1.25 47.95 -1.25 47.95 -1.24 45.4 C-1.25 44.44 -1.25 43.49 -1.25 42.51 C-1.25 41.47 -1.24 40.44 -1.23 39.38 C-1.23 38.32 -1.23 37.26 -1.23 36.17 C-1.23 33.93 -1.22 31.69 -1.21 29.45 C-1.19 26.01 -1.19 22.58 -1.19 19.14 C-1.18 16.97 -1.17 14.8 -1.17 12.62 C-1.17 11.59 -1.17 10.56 -1.16 9.49 C-1.16 8.54 -1.15 7.58 -1.15 6.6 C-1.14 5.76 -1.14 4.92 -1.13 4.05 C-1 2 -1 2 0 0 Z " fill="#ffffff" transform="translate(574,758)"/>
<path d="M0 0 C2.25 1.75 2.25 1.75 3.12 4.44 C3.17 5.2 3.21 5.96 3.25 6.75 C1.69 7.44 1.69 7.44 -0.75 7.75 C-2.43 6.99 -4.1 6.24 -5.77 5.46 C-12.04 3.2 -18.5 4.96 -24.68 6.7 C-27.26 8.01 -27.71 9.1 -28.75 11.75 C-29.29 12.74 -29.82 13.73 -30.38 14.75 C-32.83 20.64 -32.88 27.36 -30.87 33.38 C-28.16 38.81 -25.36 41.47 -19.75 43.75 C-13.67 45.12 -8.69 44.65 -2.75 42.75 C-2.42 42.42 -2.09 42.09 -1.75 41.75 C-0.08 41.71 1.58 41.71 3.25 41.75 C3.58 42.74 3.91 43.73 4.25 44.75 C1.33 49.13 -2.82 50.04 -7.74 51.23 C-15.03 52.47 -21.25 50.94 -27.5 47.06 C-31.64 44.11 -34.1 41.08 -36.75 36.75 C-37.11 36.18 -37.48 35.61 -37.86 35.02 C-40.18 29.12 -39.63 20.23 -38.1 14.17 C-34.89 7.19 -28.86 1.53 -21.75 -1.25 C-14.64 -3.08 -6.91 -2.3 0 0 Z " fill="#ffffff" transform="translate(663.75,759.25)"/>
<path d="M0 0 C12.54 0 25.08 0 38 0 C38.5 1.98 38.5 1.98 39 4 C37 6 33.18 5.41 30.44 5.56 C29.37 5.63 29.37 5.63 28.28 5.69 C26.52 5.8 24.76 5.9 23 6 C22.98 6.82 22.98 6.82 22.97 7.66 C22.86 13.33 22.75 19.01 22.63 24.69 C22.58 26.81 22.54 28.93 22.5 31.05 C22.45 34.09 22.38 37.14 22.32 40.18 C22.29 41.61 22.29 41.61 22.27 43.06 C22.25 43.95 22.23 44.83 22.21 45.73 C22.19 46.51 22.17 47.29 22.16 48.09 C22 50 22 50 21 52 C17.12 51.12 17.12 51.12 16 50 C15.88 48.62 15.82 47.23 15.79 45.85 C15.77 44.97 15.75 44.09 15.73 43.18 C15.72 42.22 15.7 41.26 15.68 40.28 C15.66 39.3 15.64 38.33 15.62 37.32 C15.56 34.19 15.5 31.07 15.44 27.94 C15.39 25.82 15.35 23.71 15.31 21.59 C15.2 16.39 15.1 11.2 15 6 C10.05 5.67 5.1 5.34 0 5 C-0.33 4.01 -0.66 3.02 -1 2 C-0.67 1.34 -0.34 0.68 0 0 Z " fill="#ffffff" transform="translate(512,758)"/>
</svg>
