<?xml version="1.0" encoding="UTF-8" standalone="no"?>
<!DOCTYPE svg PUBLIC "-//W3C//DTD SVG 1.1//EN" "http://www.w3.org/Graphics/SVG/1.1/DTD/svg11.dtd">
<svg xmlns="http://www.w3.org/2000/svg" version="1.1" viewBox="0 0 800 800">
<path fill="#000000" d="
  M 190.35 343.16
  C 178.58 343.07 175.14 325.73 186.25 321.16
  Q 188.45 320.26 193.39 320.27
  Q 196.55 320.28 199.71 320.17
  A 1.00 1.00 0.0 0 0 200.67 319.19
  Q 200.79 314.72 200.77 310.31
  Q 200.74 304.11 201.95 301.37
  C 206.11 291.95 219.82 291.46 224.44 300.82
  Q 225.72 303.40 225.72 308.41
  Q 225.73 313.80 225.83 319.19
  A 1.01 1.00 0.0 0 0 226.82 320.17
  Q 233.23 320.29 239.53 320.27
  Q 243.82 320.26 246.17 321.48
  C 254.30 325.70 254.68 337.92 246.10 341.93
  Q 243.44 343.18 236.05 343.21
  Q 231.42 343.24 226.77 343.37
  A 1.00 0.99 -0.9 0 0 225.80 344.36
  Q 225.61 389.19 225.78 399.25
  Q 225.95 409.56 236.07 408.11
  C 240.19 407.52 245.44 404.02 249.32 409.63
  Q 253.06 415.02 250.78 420.15
  C 244.33 434.64 218.81 430.55 208.80 423.95
  C 202.14 419.56 200.78 408.26 200.78 400.93
  Q 200.75 372.65 200.72 344.37
  A 1.00 0.99 -89.1 0 0 199.76 343.37
  Q 194.89 343.20 190.35 343.16
  Z"
/>
<path fill="#000000" d="
  M 470.69 329.74
  Q 471.84 330.99 472.07 329.31
  Q 473.64 318.02 482.42 316.37
  C 490.73 314.82 497.45 320.56 497.47 329.06
  Q 497.54 373.78 497.53 418.50
  C 497.53 440.44 490.87 458.27 469.27 466.83
  C 450.49 474.27 432.65 472.36 413.82 467.40
  C 405.14 465.11 394.79 459.27 399.66 448.21
  C 405.85 434.16 420.99 444.59 430.13 447.14
  C 445.88 451.52 470.42 448.66 471.93 427.92
  Q 472.31 422.64 472.24 417.35
  Q 472.21 414.88 470.79 416.90
  Q 470.54 417.25 470.28 417.62
  Q 469.68 418.49 468.97 419.13
  Q 449.23 436.95 425.12 430.41
  C 372.64 416.18 372.79 331.34 424.66 317.62
  Q 443.08 312.76 460.96 322.28
  Q 466.59 325.28 470.69 329.74
  Z
  M 423.30 344.81
  C 399.32 362.58 408.51 411.14 442.82 409.20
  C 481.74 407.00 483.76 345.75 446.99 339.47
  C 438.71 338.06 430.09 339.77 423.30 344.81
  Z"
/>
<path fill="#000000" d="
  M 600.29 419.01
  Q 596.17 422.54 595.23 423.21
  Q 578.70 435.07 559.01 431.22
  C 506.69 420.97 502.82 336.96 551.51 318.90
  Q 564.13 314.22 578.18 317.16
  Q 590.68 319.78 600.42 327.98
  Q 601.61 328.98 601.73 327.43
  Q 601.95 324.62 603.30 322.24
  C 608.22 313.57 622.00 313.99 625.75 323.41
  Q 626.73 325.86 626.73 331.34
  Q 626.76 372.73 626.75 414.12
  Q 626.75 420.21 625.36 423.14
  C 622.14 429.95 613.56 431.97 607.38 428.09
  Q 602.99 425.32 601.93 419.59
  Q 601.61 417.88 600.29 419.01
  Z
  M 555.62 343.92
  C 528.96 361.76 540.99 417.22 579.25 408.18
  C 608.02 401.39 610.09 356.19 586.70 342.78
  C 577.19 337.33 564.71 337.84 555.62 343.92
  Z"
/>
<path fill="#000000" d="
  M 320.78 390.19
  Q 321.69 392.31 322.61 390.19
  Q 335.99 359.38 349.42 328.61
  C 352.29 322.02 355.73 317.20 363.25 318.41
  C 369.48 319.41 373.23 323.96 373.29 330.26
  C 373.31 332.65 370.41 338.38 369.21 341.03
  Q 352.23 378.51 335.19 415.97
  C 331.74 423.55 330.42 428.35 322.98 429.91
  C 317.47 431.06 311.45 428.48 309.13 423.34
  Q 290.38 381.90 271.68 340.44
  C 268.44 333.26 265.62 326.27 272.41 321.00
  C 277.72 316.88 285.07 317.16 289.90 321.88
  Q 291.84 323.78 293.91 328.49
  Q 307.51 359.40 320.78 390.19
  Z"
/>
<path fill="#000000" d="
  M 396.43 502.07
  C 381.85 488.91 398.09 465.99 415.37 476.00
  C 416.43 476.62 417.68 478.05 415.69 478.67
  A 1.02 0.99 -39.0 0 1 414.91 478.60
  C 406.25 473.87 396.93 476.77 394.26 485.98
  C 390.74 498.13 402.89 507.34 413.99 501.52
  C 415.35 500.81 417.31 500.71 416.59 502.96
  A 1.01 1.00 87.4 0 1 416.04 503.57
  C 408.94 506.69 402.46 507.53 396.43 502.07
  Z"
/>
<path fill="#000000" d="
  M 329.53 476.46
  L 321.01 476.51
  A 1.00 0.99 5.4 0 1 320.02 475.32
  L 320.12 474.81
  A 1.00 1.00 0.0 0 1 321.10 474.00
  L 342.86 474.00
  A 1.00 1.00 0.0 0 1 343.86 475.00
  L 343.86 475.54
  A 1.01 1.00 0.3 0 1 342.84 476.54
  L 334.33 476.42
  A 1.00 1.00 0.0 0 0 333.32 477.41
  Q 333.17 490.26 333.29 503.06
  C 333.30 504.59 332.72 506.94 330.74 504.73
  A 1.02 0.99 24.8 0 1 330.48 504.06
  L 330.53 477.46
  A 1.00 0.99 0.3 0 0 329.53 476.46
  Z"
/>
<path fill="#000000" d="
  M 359.50 505.75
  A 1.00 1.00 0.0 0 1 358.50 504.75
  L 358.50 475.00
  A 1.00 1.00 0.0 0 1 359.50 474.00
  L 376.76 474.00
  A 1.01 1.00 -2.8 0 1 377.76 474.90
  L 377.81 475.42
  A 1.00 1.00 0.0 0 1 376.81 476.52
  L 362.25 476.46
  A 0.99 0.99 0.0 0 0 361.25 477.45
  L 361.25 487.00
  A 1.00 1.00 0.0 0 0 362.25 488.00
  L 374.63 488.00
  A 1.00 0.99 -13.9 0 1 375.51 488.53
  Q 376.12 489.67 375.13 490.51
  A 1.00 1.00 0.0 0 1 374.48 490.75
  L 362.25 490.75
  A 1.00 1.00 0.0 0 0 361.25 491.75
  L 361.25 501.91
  A 1.00 0.99 -89.4 0 0 362.22 502.91
  Q 369.08 503.08 375.83 502.99
  C 377.37 502.97 379.02 504.20 377.14 505.56
  A 1.05 1.00 -61.3 0 1 376.55 505.75
  L 359.50 505.75
  Z"
/>
<path fill="#000000" d="
  M 451.50 490.75
  L 435.09 490.75
  A 1.00 1.00 0.0 0 0 434.09 491.72
  Q 433.91 497.61 434.01 503.28
  C 434.05 505.94 431.24 506.95 431.24 503.71
  Q 431.25 489.39 431.25 475.10
  A 1.01 1.01 0.0 0 1 432.33 474.10
  L 433.07 474.16
  A 1.01 0.99 2.2 0 1 434.00 475.15
  L 434.00 487.25
  A 1.00 1.00 0.0 0 0 435.00 488.25
  L 451.40 488.25
  A 1.00 1.00 0.0 0 0 452.40 487.29
  Q 452.60 481.95 452.48 476.74
  C 452.45 475.36 453.01 472.78 454.94 474.65
  A 0.99 0.98 -68.8 0 1 455.25 475.37
  L 455.25 504.40
  A 1.02 1.00 71.6 0 1 454.86 505.20
  Q 453.57 506.18 452.64 504.62
  A 1.04 1.02 -60.5 0 1 452.50 504.10
  L 452.50 491.75
  A 1.00 1.00 0.0 0 0 451.50 490.75
  Z"
/>
</svg>
